<svg xmlns="http://www.w3.org/2000/svg" viewBox="0 0 736 736"><defs><style>.a{fill:#f6f5f6;}.b{fill:#126066;}</style></defs><g transform="translate(-592 -172)"><g transform="translate(482 73)"><rect class="a" width="92" height="92" transform="translate(110 99)"/></g><g transform="translate(758 165)"><rect class="a" width="92" height="92" transform="translate(110 99)"/></g><g transform="translate(482 257)"><rect class="a" width="92" height="92" transform="translate(110 99)"/></g><g transform="translate(758 349)"><rect class="a" width="92" height="92" transform="translate(110 99)"/></g><g transform="translate(482 441)"><rect class="a" width="92" height="92" transform="translate(110 99)"/></g><g transform="translate(482 625)"><rect class="a" width="92" height="92" transform="translate(110 99)"/></g><g transform="translate(758 533)"><rect class="a" width="92" height="92" transform="translate(110 99)"/></g><g transform="translate(758 717)"><rect class="a" width="92" height="92" transform="translate(110 99)"/></g><g transform="translate(574 165)"><rect class="a" width="92" height="92" transform="translate(110 99)"/></g><g transform="translate(850 257)"><rect class="a" width="92" height="92" transform="translate(110 99)"/></g><g transform="translate(1034 257)"><rect class="a" width="92" height="92" transform="translate(110 99)"/></g><g transform="translate(574 349)"><rect class="a" width="92" height="92" transform="translate(110 99)"/></g><g transform="translate(850 441)"><rect class="a" width="92" height="92" transform="translate(110 99)"/></g><g transform="translate(1034 441)"><rect class="a" width="92" height="92" transform="translate(110 99)"/></g><g transform="translate(850 73)"><rect class="a" width="92" height="92" transform="translate(110 99)"/></g><g transform="translate(1034 73)"><rect class="a" width="92" height="92" transform="translate(110 99)"/></g><g transform="translate(850 625)"><rect class="a" width="92" height="92" transform="translate(110 99)"/></g><g transform="translate(1034 625)"><rect class="a" width="92" height="92" transform="translate(110 99)"/></g><g transform="translate(574 533)"><rect class="a" width="92" height="92" transform="translate(110 99)"/></g><g transform="translate(574 717)"><rect class="a" width="92" height="92" transform="translate(110 99)"/></g><g transform="translate(666 73)"><rect class="a" width="92" height="92" transform="translate(110 99)"/></g><g transform="translate(942 165)"><rect class="a" width="92" height="92" transform="translate(110 99)"/></g><g transform="translate(1126 165)"><rect class="a" width="92" height="92" transform="translate(110 99)"/></g><g transform="translate(666 257)"><rect class="a" width="92" height="92" transform="translate(110 99)"/></g><g transform="translate(942 349)"><rect class="a" width="92" height="92" transform="translate(110 99)"/></g><g transform="translate(1126 349)"><rect class="a" width="92" height="92" transform="translate(110 99)"/></g><g transform="translate(666 441)"><rect class="a" width="92" height="92" transform="translate(110 99)"/></g><g transform="translate(666 625)"><rect class="a" width="92" height="92" transform="translate(110 99)"/></g><g transform="translate(942 533)"><rect class="a" width="92" height="92" transform="translate(110 99)"/></g><g transform="translate(942 717)"><rect class="a" width="92" height="92" transform="translate(110 99)"/></g><g transform="translate(1126 533)"><rect class="a" width="92" height="92" transform="translate(110 99)"/></g><g transform="translate(1126 717)"><rect class="a" width="92" height="92" transform="translate(110 99)"/></g><g transform="translate(482 73)"><rect class="b" width="92" height="92" transform="translate(202 99)"/></g><g transform="translate(758 165)"><rect class="b" width="92" height="92" transform="translate(202 99)"/></g><g transform="translate(942 165)"><rect class="b" width="92" height="92" transform="translate(202 99)"/></g><g transform="translate(482 257)"><rect class="b" width="92" height="92" transform="translate(202 99)"/></g><g transform="translate(758 349)"><rect class="b" width="92" height="92" transform="translate(202 99)"/></g><g transform="translate(942 349)"><rect class="b" width="92" height="92" transform="translate(202 99)"/></g><g transform="translate(482 441)"><rect class="b" width="92" height="92" transform="translate(202 99)"/></g><g transform="translate(482 625)"><rect class="b" width="92" height="92" transform="translate(202 99)"/></g><g transform="translate(758 533)"><rect class="b" width="92" height="92" transform="translate(202 99)"/></g><g transform="translate(758 717)"><rect class="b" width="92" height="92" transform="translate(202 99)"/></g><g transform="translate(942 533)"><rect class="b" width="92" height="92" transform="translate(202 99)"/></g><g transform="translate(942 717)"><rect class="b" width="92" height="92" transform="translate(202 99)"/></g><g transform="translate(574 165)"><rect class="b" width="92" height="92" transform="translate(202 99)"/></g><g transform="translate(850 257)"><rect class="b" width="92" height="92" transform="translate(202 99)"/></g><g transform="translate(1034 257)"><rect class="b" width="92" height="92" transform="translate(202 99)"/></g><g transform="translate(574 349)"><rect class="b" width="92" height="92" transform="translate(202 99)"/></g><g transform="translate(850 441)"><rect class="b" width="92" height="92" transform="translate(202 99)"/></g><g transform="translate(1034 441)"><rect class="b" width="92" height="92" transform="translate(202 99)"/></g><g transform="translate(850 73)"><rect class="b" width="92" height="92" transform="translate(202 99)"/></g><g transform="translate(1034 73)"><rect class="b" width="92" height="92" transform="translate(202 99)"/></g><g transform="translate(850 625)"><rect class="b" width="92" height="92" transform="translate(202 99)"/></g><g transform="translate(1034 625)"><rect class="b" width="92" height="92" transform="translate(202 99)"/></g><g transform="translate(574 533)"><rect class="b" width="92" height="92" transform="translate(202 99)"/></g><g transform="translate(574 717)"><rect class="b" width="92" height="92" transform="translate(202 99)"/></g><g transform="translate(390 165)"><rect class="b" width="92" height="92" transform="translate(202 99)"/></g><g transform="translate(666 257)"><rect class="b" width="92" height="92" transform="translate(202 99)"/></g><g transform="translate(390 349)"><rect class="b" width="92" height="92" transform="translate(202 99)"/></g><g transform="translate(666 441)"><rect class="b" width="92" height="92" transform="translate(202 99)"/></g><g transform="translate(666 73)"><rect class="b" width="92" height="92" transform="translate(202 99)"/></g><g transform="translate(666 625)"><rect class="b" width="92" height="92" transform="translate(202 99)"/></g><g transform="translate(390 533)"><rect class="b" width="92" height="92" transform="translate(202 99)"/></g><g transform="translate(390 717)"><rect class="b" width="92" height="92" transform="translate(202 99)"/></g></g></svg>