<svg xmlns="http://www.w3.org/2000/svg" viewBox="0 0 85.511 133.662">
  <defs>
    <style>
      .cls-1 {
        fill: #126066;
      }

      .cls-2 {
        fill: #d9dad2;
      }

      .cls-3 {
        fill: #262730;
      }

      .cls-4 {
        fill: #cae4e6;
      }

      .cls-5 {
        fill: #3a7a80;
      }
    </style>
  </defs>
  <g id="Group_14" data-name="Group 14" transform="translate(-876 -410)">
    <g id="icon" transform="translate(876 410)">
      <g id="Group_13" data-name="Group 13" transform="translate(0 0)">
        <g id="Group_1" data-name="Group 1" transform="translate(22.713 98.158)">
          <path id="Path_1" data-name="Path 1" class="cls-1" d="M213.452,384.358a2.089,2.089,0,0,1,0-4.177,2.089,2.089,0,0,0,0-4.177H180.415a2.089,2.089,0,0,0,0,4.177,2.089,2.089,0,0,1,0,4.177,2.089,2.089,0,0,0,0,4.177h33.038a2.089,2.089,0,0,0,0-4.177Z" transform="translate(-178.35 -376.004)"/>
        </g>
        <g id="Group_2" data-name="Group 2" transform="translate(4.129)">
          <path id="Path_2" data-name="Path 2" class="cls-2" d="M185.595,51.169a2.335,2.335,0,0,1,.678-1.654,5.089,5.089,0,0,0,0-7.134L161.716,17.543c1.563-2.593,3.636-8.115.222-16.267a2.053,2.053,0,0,0-3.581-.4c-2.978,4.216-8.955,8.059-15.876,12.509-16.1,10.35-36.131,23.232-36.131,51.358,0,23.674,12.482,33.956,16.309,36.544a6.122,6.122,0,0,0,3.436,1.048h35.782a6.148,6.148,0,0,0,5.253-2.945l4.047-6.55a14.759,14.759,0,0,0-1.73-17.769l-21.8-23.423a57.834,57.834,0,0,0,8.257.564c7.814,0,11.468,4.077,14.69,7.675a27.944,27.944,0,0,0,3.234,3.25,4.116,4.116,0,0,0,5.485-.32l6.957-7.041a2.106,2.106,0,0,0,0-2.954A2.332,2.332,0,0,1,185.595,51.169Z" transform="translate(-106.35 -0.001)"/>
        </g>
        <g id="Group_3" data-name="Group 3" transform="translate(4.13 0.018)">
          <path id="Path_3" data-name="Path 3" class="cls-3" d="M127,56.442c0-32.371,28.205-32.2,33.034-56.371a2.047,2.047,0,0,0-1.676.858c-2.978,4.216-8.955,8.059-15.876,12.509-16.1,10.35-36.131,23.232-36.131,51.358,0,23.674,12.482,33.956,16.309,36.544a6.122,6.122,0,0,0,3.436,1.048h23.617C149.713,77.5,127,77.95,127,56.442Z" transform="translate(-106.351 -0.071)"/>
        </g>
        <g id="Group_4" data-name="Group 4" transform="translate(0 106.512)">
          <path id="Path_4" data-name="Path 4" class="cls-4" d="M170.717,417.678l-10.9-9.19a2.05,2.05,0,0,0-1.323-.484H104.8a2.05,2.05,0,0,0-1.323.484l-10.9,9.189a6.277,6.277,0,0,0-2.23,4.814v10.574a2.076,2.076,0,0,0,2.065,2.088H170.88a2.076,2.076,0,0,0,2.065-2.088V422.49A6.278,6.278,0,0,0,170.717,417.678Z" transform="translate(-90.351 -408.004)"/>
        </g>
        <g id="Group_6" data-name="Group 6" transform="translate(43.362 26.149)">
          <g id="Group_5" data-name="Group 5">
            <path id="Path_5" data-name="Path 5" class="cls-3" d="M260.415,107.434a2.089,2.089,0,0,1,0-4.177,7.3,7.3,0,0,0,3.261-1.239c2.357-1.308,5.587-3.1,10.116-.594a2.1,2.1,0,0,1,.825,2.834,2.054,2.054,0,0,1-2.8.833c-2.555-1.408-3.986-.612-6.156.592A10.677,10.677,0,0,1,260.415,107.434Z" transform="translate(-258.35 -100.167)"/>
          </g>
        </g>
        <g id="Group_8" data-name="Group 8" transform="translate(51.621 27.151)">
          <g id="Group_7" data-name="Group 7" transform="translate(0)">
            <path id="Path_6" data-name="Path 6" class="cls-3" d="M292.415,110.269a2.076,2.076,0,0,1-2.065-2.088v-2.088a2.065,2.065,0,1,1,4.13,0v2.088A2.076,2.076,0,0,1,292.415,110.269Z" transform="translate(-290.35 -104.004)"/>
          </g>
        </g>
        <g id="Group_9" data-name="Group 9" transform="translate(0 106.512)">
          <path id="Path_7" data-name="Path 7" class="cls-5" d="M131.648,408H104.8a2.05,2.05,0,0,0-1.323.484l-10.9,9.189a6.277,6.277,0,0,0-2.23,4.814v10.574a2.076,2.076,0,0,0,2.065,2.088h39.232Z" transform="translate(-90.351 -408.004)"/>
        </g>
        <g id="Group_10" data-name="Group 10" transform="translate(0 119.043)">
          <path id="Path_8" data-name="Path 8" class="cls-5" d="M90.351,457.961v10.574a2.076,2.076,0,0,0,2.065,2.088H170.88a2.076,2.076,0,0,0,2.065-2.088V457.96A6.287,6.287,0,0,0,172.6,456H90.7A6.281,6.281,0,0,0,90.351,457.961Z" transform="translate(-90.351 -456.004)"/>
        </g>
        <g id="Group_11" data-name="Group 11" transform="translate(0 119.043)">
          <path id="Path_9" data-name="Path 9" class="cls-1" d="M131.648,456H90.7a6.288,6.288,0,0,0-.347,1.957v10.574a2.076,2.076,0,0,0,2.065,2.088h39.232Z" transform="translate(-90.351 -456.004)"/>
        </g>
        <g id="Group_12" data-name="Group 12" transform="translate(28.194 29.239)">
          <path id="Path_10" data-name="Path 10" class="cls-3" d="M216.821,134.412c.4.058.834.109,1.267.16a17.343,17.343,0,0,1-11.889-7.9c-2.633-4.273-2.956-9.173-1.916-11.8a2.1,2.1,0,0,0-1.151-2.716,2.062,2.062,0,0,0-2.684,1.164c-1.716,4.343-.815,10.6,2.246,15.564,3.7,6.01,10.131,9.656,18.1,10.267.052,0,.1.006.157.006a1.9,1.9,0,0,0,.239-.046Z" transform="translate(-199.587 -112.003)"/>
        </g>
      </g>
    </g>
  </g>
</svg>
