<?xml version="1.0" encoding="UTF-8" standalone="no"?>
<svg
  xmlns:dc="http://purl.org/dc/elements/1.1/"
  xmlns:cc="http://creativecommons.org/ns#"
  xmlns:rdf="http://www.w3.org/1999/02/22-rdf-syntax-ns#"
  xmlns:svg="http://www.w3.org/2000/svg"
  xmlns="http://www.w3.org/2000/svg"
  xmlns:sodipodi="http://sodipodi.sourceforge.net/DTD/sodipodi-0.dtd"
  xmlns:inkscape="http://www.inkscape.org/namespaces/inkscape"
  viewBox="0 0 535 178"
  version="1.1"
  id="svg72"
  sodipodi:docname="logo.svg"
  inkscape:version="0.92.1 r15371">
  <metadata
     id="metadata76">
    <rdf:RDF>
      <cc:Work
        rdf:about="">
        <dc:format>image/svg+xml</dc:format>
        <dc:type
           rdf:resource="http://purl.org/dc/dcmitype/StillImage" />
      </cc:Work>
    </rdf:RDF>
  </metadata>
  <sodipodi:namedview
     pagecolor="#ffffff"
     bordercolor="#666666"
     borderopacity="1"
     objecttolerance="10"
     gridtolerance="10"
     guidetolerance="10"
     inkscape:pageopacity="0"
     inkscape:pageshadow="2"
     inkscape:window-width="1920"
     inkscape:window-height="1000"
     id="namedview74"
     showgrid="false"
     inkscape:zoom="1.3093458"
     inkscape:cx="247.5979"
     inkscape:cy="80.499941"
     inkscape:window-x="-11"
     inkscape:window-y="-11"
     inkscape:window-maximized="1"
     inkscape:current-layer="g70" />
  <defs
     id="defs12">
    <style
       id="style10">.a{fill:#0b3142;font-size:100px;font-family:Niramit-SemiBold, Niramit;font-weight:600;}.b{fill:#126066;}.c{fill:#d9dad2;}.d{fill:#262730;}.e{fill:#cae4e6;}.f{fill:#3a7a80;}</style>
  </defs>
  <g
     transform="translate(-731.238 -378)"
     id="g70">
    <g
       aria-label="Chess"
       transform="translate(731.238 503)"
       style="font-weight:600;font-size:100px;font-family:Niramit-SemiBold, Niramit;fill:#0b3142"
       id="text16">
      <path
         d="M 36.3,1 Q 26.5,1 19.3,-3.5 12.2,-8 8.3,-16.1 4.5,-24.3 4.5,-35.1 4.5,-45.9 8.2,-54 12,-62.1 19,-66.5 26,-71 35.5,-71 q 6,0 11.2,2.1 5.3,2 8.9,5.7 l -3.6,6.3 q -3.3,-3.3 -7.2,-5 -3.9,-1.8 -9.3,-1.8 -10.5,0 -16.4,7.7 -5.8,7.7 -5.8,20.9 0,13.4 6.1,21.1 6.1,7.7 17.1,7.7 9.9,0 15.7,-6.5 l 5.4,5 Q 53.7,-3.6 48,-1.3 42.4,1 36.3,1 Z"
         style=""
         id="path117" />
      <path
         d="m 104.00938,1 q -3.2,-5.5 -3.2,-11.9 v -19 q 0,-6.4 -2.700005,-9.4 -2.6,-3.1 -8.1,-3.1 -4,0 -7.1,2.2 -3,2.2 -4.7,5.9 -1.7,3.7 -1.7,7.9 V 0 h -8.4 v -73.4 h 8.4 v 31.8 q 2.5,-3.7 6.5,-5.8 4.1,-2.1 9,-2.1 8.600005,0 12.899995,5.1 4.3,5.1 4.3,14.6 v 18.9 q 0,5 2.30001,8.9 z"
         style=""
         id="path119" />
      <path
         d="m 144.41562,1 q -7.4,0 -12.8,-3.1 -5.39999,-3.1 -8.3,-8.7 -2.79999,-5.7 -2.79999,-13.1 0,-11 5.59999,-18.3 5.6,-7.3 17,-7.3 7.9,0 13,3.7 5.1,3.7 7.4,9.2 2.3,5.4 2.3,11 0,5 -5.7,5 h -31.1 q 0,6.6 4.1,10.6 4.1,3.9 11.3,3.9 8.5,0 14,-5 l 4.4,4.9 q -3.2,3.4 -8,5.3 -4.8,1.9 -10.4,1.9 z m 13,-28.5 q 0,-6.4 -3.8,-10.7 -3.7,-4.3 -10.5,-4.3 -4.6,0 -7.8,2.2 -3.2,2.2 -4.8,5.7 -1.5,3.4 -1.5,7.1 z"
         style=""
         id="path121" />
      <path
         d="m 193.67344,1 q -6.8,0 -12.2,-2.1 -5.4,-2.1 -9.2,-5.9 l 5.1,-5.5 q 2.9,3.1 7.2,4.9 4.4,1.7 9.1,1.7 4.7,0 7.2,-1.5 2.5,-1.5 2.5,-4.5 0,-2.1 -0.9,-3.4 -0.9,-1.3 -3.4,-2.6 -2.5,-1.3 -7.9,-3.1 -9.3,-3.2 -13.2,-6.5 -3.9,-3.3 -3.9,-9 0,-6 4.7,-9.5 4.7,-3.5 13.3,-3.5 5,0 9.2,1.5 4.3,1.4 7.5,3.7 l -3.2,6 q -3.4,-2.3 -6.6,-3.3 -3.2,-1 -7,-1 -4.7,0 -7.1,1.7 -2.4,1.6 -2.4,4.4 0,2.2 1.3,3.6 1.3,1.4 3.5,2.4 2.2,1 7.5,2.9 6.6,2.4 10.1,4.4 3.6,2 5.2,4.7 1.7,2.6 1.7,6.7 0,6 -4.8,9.4 -4.7,3.4 -13.3,3.4 z"
         style=""
         id="path123" />
      <path
         d="m 239.57187,1 q -6.8,0 -12.2,-2.1 -5.4,-2.1 -9.2,-5.9 l 5.1,-5.5 q 2.9,3.1 7.2,4.9 4.4,1.7 9.1,1.7 4.7,0 7.2,-1.5 2.5,-1.5 2.5,-4.5 0,-2.1 -0.9,-3.4 -0.9,-1.3 -3.4,-2.6 -2.5,-1.3 -7.9,-3.1 -9.3,-3.2 -13.2,-6.5 -3.9,-3.3 -3.9,-9 0,-6 4.7,-9.5 4.7,-3.5 13.3,-3.5 5,0 9.2,1.5 4.3,1.4 7.5,3.7 l -3.2,6 q -3.4,-2.3 -6.6,-3.3 -3.2,-1 -7,-1 -4.7,0 -7.1,1.7 -2.4,1.6 -2.4,4.4 0,2.2 1.3,3.6 1.3,1.4 3.5,2.4 2.2,1 7.5,2.9 6.6,2.4 10.1,4.4 3.6,2 5.2,4.7 1.7,2.6 1.7,6.7 0,6 -4.8,9.4 -4.7,3.4 -13.3,3.4 z"
         style=""
         id="path125" />
    </g>
    <g
       aria-label="ous"
       transform="translate(1105.238 503)"
       style="font-weight:600;font-size:100px;font-family:Niramit-SemiBold, Niramit;fill:#0b3142"
       id="text20">
      <path
         d="M 27.4,1 Q 20,1 14.8,-2.3 9.7,-5.7 7.1,-11.4 4.5,-17.1 4.5,-24.3 q 0,-7.1 2.6,-12.8 2.6,-5.8 7.7,-9.1 5.2,-3.3 12.6,-3.3 7.4,0 12.5,3.3 5.2,3.3 7.8,9.1 2.6,5.7 2.6,12.8 0,7.2 -2.6,12.9 -2.6,5.7 -7.8,9.1 Q 34.8,1 27.4,1 Z m 0,-7.1 q 7,0 10.6,-4.9 3.7,-5 3.7,-13.3 0,-8.2 -3.7,-13.1 -3.6,-5 -10.6,-5 -6.9,0 -10.6,5 -3.7,4.9 -3.7,13.1 0,8.3 3.7,13.3 3.7,4.9 10.6,4.9 z"
         style=""
         id="path128" />
      <path
         d="m 78.2875,1 q -8.5,0 -13.3,-5.1 -4.8,-5.2 -4.8,-14.4 l 0.1,-30 h 8.4 v 29.9 q 0,6.4 2.7,9.5 2.8,3 8.7,3 6,0 9.3,-4.4 3.4,-4.5 3.4,-11 v -27 h 8.4 v 36.3 q 0,3.4 0.5,5.8 0.6,2.4 1.7,4.5 l -7.5,2.9 q -0.8,-1.5 -1.5,-3.8 -0.7,-2.3 -1,-4.8 -5.3,8.6 -15.1,8.6 z"
         style=""
         id="path130" />
      <path
         d="m 133.7125,1 q -6.8,0 -12.2,-2.1 -5.4,-2.1 -9.2,-5.9 l 5.1,-5.5 q 2.9,3.1 7.2,4.9 4.4,1.7 9.1,1.7 4.7,0 7.2,-1.5 2.5,-1.5 2.5,-4.5 0,-2.1 -0.9,-3.4 -0.9,-1.3 -3.4,-2.6 -2.5,-1.3 -7.9,-3.1 -9.3,-3.2 -13.2,-6.5 -3.9,-3.3 -3.9,-9 0,-6 4.7,-9.5 4.7,-3.5 13.3,-3.5 5,0 9.2,1.5 4.3,1.4 7.5,3.7 l -3.2,6 q -3.4,-2.3 -6.6,-3.3 -3.2,-1 -7,-1 -4.7,0 -7.1,1.7 -2.4,1.6 -2.4,4.4 0,2.2 1.3,3.6 1.3,1.4 3.5,2.4 2.2,1 7.5,2.9 6.6,2.4 10.1,4.4 3.6,2 5.2,4.7 1.7,2.6 1.7,6.7 0,6 -4.8,9.4 -4.7,3.4 -13.3,3.4 z"
         style=""
         id="path132" />
    </g>
    <g
       transform="translate(134.489 -10)"
       id="g68">
      <g
         transform="translate(876 410)"
         id="g66">
        <g
           id="g64"
           transform="translate(0 0)">
          <g
             transform="translate(22.713 98.158)"
             id="g24">
            <path
               class="b"
               d="M213.452,384.358a2.089,2.089,0,0,1,0-4.177,2.089,2.089,0,0,0,0-4.177H180.415a2.089,2.089,0,0,0,0,4.177,2.089,2.089,0,0,1,0,4.177,2.089,2.089,0,0,0,0,4.177h33.038a2.089,2.089,0,0,0,0-4.177Z"
               transform="translate(-178.35 -376.004)"
               id="path22" />
          </g>
          <g
             transform="translate(4.129)"
             id="g28">
            <path
               class="c"
               d="M185.595,51.169a2.335,2.335,0,0,1,.678-1.654,5.089,5.089,0,0,0,0-7.134L161.716,17.543c1.563-2.593,3.636-8.115.222-16.267a2.053,2.053,0,0,0-3.581-.4c-2.978,4.216-8.955,8.059-15.876,12.509-16.1,10.35-36.131,23.232-36.131,51.358,0,23.674,12.482,33.956,16.309,36.544a6.122,6.122,0,0,0,3.436,1.048h35.782a6.148,6.148,0,0,0,5.253-2.945l4.047-6.55a14.759,14.759,0,0,0-1.73-17.769l-21.8-23.423a57.834,57.834,0,0,0,8.257.564c7.814,0,11.468,4.077,14.69,7.675a27.944,27.944,0,0,0,3.234,3.25,4.116,4.116,0,0,0,5.485-.32l6.957-7.041a2.106,2.106,0,0,0,0-2.954A2.332,2.332,0,0,1,185.595,51.169Z"
               transform="translate(-106.35 -0.001)"
               id="path26" />
          </g>
          <g
             transform="translate(4.13 0.018)"
             id="g32">
            <path
               class="d"
               d="M127,56.442c0-32.371,28.205-32.2,33.034-56.371a2.047,2.047,0,0,0-1.676.858c-2.978,4.216-8.955,8.059-15.876,12.509-16.1,10.35-36.131,23.232-36.131,51.358,0,23.674,12.482,33.956,16.309,36.544a6.122,6.122,0,0,0,3.436,1.048h23.617C149.713,77.5,127,77.95,127,56.442Z"
               transform="translate(-106.351 -0.071)"
               id="path30" />
          </g>
          <g
             transform="translate(0 106.512)"
             id="g36">
            <path
               class="e"
               d="M170.717,417.678l-10.9-9.19a2.05,2.05,0,0,0-1.323-.484H104.8a2.05,2.05,0,0,0-1.323.484l-10.9,9.189a6.277,6.277,0,0,0-2.23,4.814v10.574a2.076,2.076,0,0,0,2.065,2.088H170.88a2.076,2.076,0,0,0,2.065-2.088V422.49A6.278,6.278,0,0,0,170.717,417.678Z"
               transform="translate(-90.351 -408.004)"
               id="path34" />
          </g>
          <g
             transform="translate(43.362 26.149)"
             id="g40">
            <path
               class="d"
               d="M260.415,107.434a2.089,2.089,0,0,1,0-4.177,7.3,7.3,0,0,0,3.261-1.239c2.357-1.308,5.587-3.1,10.116-.594a2.1,2.1,0,0,1,.825,2.834,2.054,2.054,0,0,1-2.8.833c-2.555-1.408-3.986-.612-6.156.592A10.677,10.677,0,0,1,260.415,107.434Z"
               transform="translate(-258.35 -100.167)"
               id="path38" />
          </g>
          <g
             transform="translate(51.621 27.151)"
             id="g46">
            <g
               id="g44"
               transform="translate(0)">
              <path
                 class="d"
                 d="M292.415,110.269a2.076,2.076,0,0,1-2.065-2.088v-2.088a2.065,2.065,0,1,1,4.13,0v2.088A2.076,2.076,0,0,1,292.415,110.269Z"
                 transform="translate(-290.35 -104.004)"
                 id="path42" />
            </g>
          </g>
          <g
             transform="translate(0 106.512)"
             id="g50">
            <path
               class="f"
               d="M131.648,408H104.8a2.05,2.05,0,0,0-1.323.484l-10.9,9.189a6.277,6.277,0,0,0-2.23,4.814v10.574a2.076,2.076,0,0,0,2.065,2.088h39.232Z"
               transform="translate(-90.351 -408.004)"
               id="path48" />
          </g>
          <g
             transform="translate(0 119.043)"
             id="g54">
            <path
               class="f"
               d="M90.351,457.961v10.574a2.076,2.076,0,0,0,2.065,2.088H170.88a2.076,2.076,0,0,0,2.065-2.088V457.96A6.287,6.287,0,0,0,172.6,456H90.7A6.281,6.281,0,0,0,90.351,457.961Z"
               transform="translate(-90.351 -456.004)"
               id="path52" />
          </g>
          <g
             transform="translate(0 119.043)"
             id="g58">
            <path
               class="b"
               d="M131.648,456H90.7a6.288,6.288,0,0,0-.347,1.957v10.574a2.076,2.076,0,0,0,2.065,2.088h39.232Z"
               transform="translate(-90.351 -456.004)"
               id="path56" />
          </g>
          <g
             transform="translate(28.194 29.239)"
             id="g62">
            <path
               class="d"
               d="M216.821,134.412c.4.058.834.109,1.267.16a17.343,17.343,0,0,1-11.889-7.9c-2.633-4.273-2.956-9.173-1.916-11.8a2.1,2.1,0,0,0-1.151-2.716,2.062,2.062,0,0,0-2.684,1.164c-1.716,4.343-.815,10.6,2.246,15.564,3.7,6.01,10.131,9.656,18.1,10.267.052,0,.1.006.157.006a1.9,1.9,0,0,0,.239-.046Z"
               transform="translate(-199.587 -112.003)"
               id="path60" />
          </g>
        </g>
      </g>
    </g>
  </g>
</svg>
