<?xml version="1.0" encoding="UTF-8" standalone="no"?>
<!-- Created with Inkscape (http://www.inkscape.org/) -->

<svg
   xmlns:dc="http://purl.org/dc/elements/1.1/"
   xmlns:cc="http://creativecommons.org/ns#"
   xmlns:rdf="http://www.w3.org/1999/02/22-rdf-syntax-ns#"
   xmlns:svg="http://www.w3.org/2000/svg"
   xmlns="http://www.w3.org/2000/svg"
   xmlns:sodipodi="http://sodipodi.sourceforge.net/DTD/sodipodi-0.dtd"
   xmlns:inkscape="http://www.inkscape.org/namespaces/inkscape"
   width="64mm"
   height="64mm"
   viewBox="0 0 64 64"
   version="1.1"
   id="svg4845"
   inkscape:version="0.92.1 r15371"
   sodipodi:docname="queen-b.svg">
  <defs
     id="defs4839" />
  <sodipodi:namedview
     id="base"
     pagecolor="#ffffff"
     bordercolor="#666666"
     borderopacity="1.0"
     inkscape:pageopacity="0.0"
     inkscape:pageshadow="2"
     inkscape:zoom="1.4"
     inkscape:cx="-88.902686"
     inkscape:cy="278.91089"
     inkscape:document-units="mm"
     inkscape:current-layer="layer1"
     showgrid="false"
     fit-margin-top="0"
     fit-margin-left="0"
     fit-margin-right="0"
     fit-margin-bottom="0"
     inkscape:window-width="1920"
     inkscape:window-height="1000"
     inkscape:window-x="-11"
     inkscape:window-y="-11"
     inkscape:window-maximized="1" />
  <metadata
     id="metadata4842">
    <rdf:RDF>
      <cc:Work
         rdf:about="">
        <dc:format>image/svg+xml</dc:format>
        <dc:type
           rdf:resource="http://purl.org/dc/dcmitype/StillImage" />
        <dc:title></dc:title>
        <dc:title></dc:title>
      </cc:Work>
    </rdf:RDF>
  </metadata>
  <g
     inkscape:label="Layer 1"
     inkscape:groupmode="layer"
     id="layer1"
     transform="translate(-58.676744,-123.23476)">
    <g
       style="opacity:1;fill-opacity:1;fill-rule:evenodd;stroke:#000000;stroke-width:1.5;stroke-linecap:round;stroke-linejoin:round;stroke-miterlimit:4;stroke-dasharray:none;stroke-opacity:1"
       transform="matrix(1.6623377,0,0,1.6623377,53.274146,116.63262)"
       id="g4603">
      <g
         style="fill:#262730;stroke:none"
         id="g4587">
        <circle
           cx="6"
           cy="12"
           r="2.75"
           id="circle4577" />
        <circle
           cx="14"
           cy="9"
           r="2.75"
           id="circle4579" />
        <circle
           cx="22.5"
           cy="8"
           r="2.75"
           id="circle4581" />
        <circle
           cx="31"
           cy="9"
           r="2.75"
           id="circle4583" />
        <circle
           cx="39"
           cy="12"
           r="2.75"
           id="circle4585" />
      </g>
      <path
         inkscape:connector-curvature="0"
         d="m 9,26 c 8.5,-1.5 21,-1.5 27,0 L 38.5,13.5 31,25 30.7,10.9 25.5,24.5 22.5,10 19.5,24.5 14.3,10.9 14,25 6.5,13.5 Z"
         style="stroke:#000000;stroke-linecap:butt"
         id="path4589" />
      <path
         inkscape:connector-curvature="0"
         d="m 9,26 c 0,2 1.5,2 2.5,4 1,1.5 1,1 0.5,3.5 -1.5,1 -1.5,2.5 -1.5,2.5 -1.5,1.5 0.5,2.5 0.5,2.5 6.5,1 16.5,1 23,0 0,0 1.5,-1 0,-2.5 0,0 0.5,-1.5 -1,-2.5 -0.5,-2.5 -0.5,-2 0.5,-3.5 1,-2 2.5,-2 2.5,-4 -8.5,-1.5 -18.5,-1.5 -27,0 z"
         style="stroke-linecap:butt"
         id="path4591" />
      <path
         inkscape:connector-curvature="0"
         d="m 11,38.5 a 35,35 1 0 0 23,0"
         style="fill:none;stroke:#000000;stroke-linecap:butt"
         id="path4593" />
      <path
         inkscape:connector-curvature="0"
         d="m 11,29 a 35,35 1 0 1 23,0"
         style="fill:none;stroke:#ffffff"
         id="path4595" />
      <path
         inkscape:connector-curvature="0"
         d="m 12.5,31.5 h 20"
         style="fill:none;stroke:#ffffff"
         id="path4597" />
      <path
         inkscape:connector-curvature="0"
         d="m 11.5,34.5 a 35,35 1 0 0 22,0"
         style="fill:none;stroke:#ffffff"
         id="path4599" />
      <path
         inkscape:connector-curvature="0"
         d="m 10.5,37.5 a 35,35 1 0 0 24,0"
         style="fill:none;stroke:#ffffff"
         id="path4601" />
    </g>
  </g>
</svg>
