<svg xmlns="http://www.w3.org/2000/svg" viewBox="0 0 57.905 64"><defs><style>.a,.b{fill:#262730;stroke:#262730;stroke-width:3.048px;}.a{stroke-linejoin:round;}.a,.b,.c{fill-rule:evenodd;}.c{fill:none;stroke:#f6f5f6;stroke-linecap:round;stroke-width:2.032px;}</style></defs><g transform="translate(-61.724 -123.235)"><g transform="translate(44.962 106.473)"><path class="a" d="M18.286,79.238H73.143v-6.1H18.286Z"/><path class="a" d="M25.4,65.016l3.048-5.079h34.54l3.048,5.079Z"/><path class="a" d="M24.381,73.143V65.016H67.048v8.127Z"/><path class="b" d="M28.444,59.937V33.524h34.54V59.937Z"/><path class="a" d="M28.444,33.524l-6.1-5.079h46.73l-6.1,5.079Z"/><path class="a" d="M22.349,28.444V18.286h8.127v4.063H40.635V18.286H50.794v4.063H60.952V18.286h8.127V28.444Z"/><path class="c" d="M24.381,72.127H67.048"/><path class="c" d="M26.413,64h38.6"/><path class="c" d="M28.444,59.937h34.54"/><path class="c" d="M28.444,33.524h34.54"/><path class="c" d="M22.349,28.444h46.73"/></g></g></svg>